<?xml version="1.0" encoding="UTF-8"?>
<svg width="750px" height="634px" viewBox="0 0 750 634" version="1.1" xmlns="http://www.w3.org/2000/svg" xmlns:xlink="http://www.w3.org/1999/xlink">
    <!-- Generator: Sketch 47.1 (45422) - http://www.bohemiancoding.com/sketch -->
    <title>Group 2</title>
    <desc>Created with Sketch.</desc>
    <defs>
        <linearGradient x1="50%" y1="0.460379464%" x2="50%" y2="100%" id="linearGradient-1">
            <stop stop-color="#F0F0F0" offset="0%"></stop>
            <stop stop-color="#F5F5F5" offset="100%"></stop>
        </linearGradient>
        <linearGradient x1="50%" y1="0%" x2="50%" y2="100%" id="linearGradient-2">
            <stop stop-color="#FFFFFF" offset="0%"></stop>
            <stop stop-color="#E6E6E6" offset="100%"></stop>
        </linearGradient>
        <rect id="path-3" x="162" y="241" width="78" height="73" rx="12"></rect>
        <rect id="path-4" x="76" y="325" width="78" height="73" rx="12"></rect>
        <rect id="path-5" x="162" y="325" width="78" height="73" rx="12"></rect>
        <rect id="path-6" x="247" y="325" width="78" height="73" rx="12"></rect>
        <path d="M110.319257,366.997238 L118.680743,366.997238 L119.846284,370.179558 C119.930744,370.411603 120.057432,370.606353 120.226351,370.763812 C120.395271,370.921272 120.631755,371 120.935811,371 C121.222974,371 121.472127,370.917128 121.683277,370.751381 C121.894427,370.585635 122,370.36188 122,370.08011 C122,369.930938 121.957771,369.740333 121.873311,369.508287 C121.788851,369.276242 121.72973,369.102211 121.695946,368.986188 L116.096284,354.342541 C115.961148,353.961324 115.771116,353.642266 115.526182,353.385359 C115.281249,353.128452 114.939191,353 114.5,353 C114.060809,353 113.718751,353.128452 113.473818,353.385359 C113.228884,353.642266 113.038852,353.961324 112.903716,354.342541 L107.304054,368.986188 C107.27027,369.102211 107.211149,369.276242 107.126689,369.508287 C107.042229,369.740333 107,369.930938 107,370.08011 C107,370.36188 107.105573,370.585635 107.316723,370.751381 C107.527873,370.917128 107.777026,371 108.064189,371 C108.368245,371 108.604729,370.921272 108.773649,370.763812 C108.942568,370.606353 109.069256,370.411603 109.153716,370.179558 L110.319257,366.997238 Z M117.996622,365.107735 L111.003378,365.107735 L114.474662,355.535912 L114.525338,355.535912 L117.996622,365.107735 Z" id="path-7"></path>
        <filter x="-3.3%" y="-2.8%" width="113.3%" height="111.1%" filterUnits="objectBoundingBox" id="filter-8">
            <feOffset dx="1" dy="1" in="SourceAlpha" result="shadowOffsetOuter1"></feOffset>
            <feColorMatrix values="0 0 0 0 1   0 0 0 0 1   0 0 0 0 1  0 0 0 1 0" type="matrix" in="shadowOffsetOuter1"></feColorMatrix>
        </filter>
        <path d="M200.437358,353 C199.618827,353 198.88383,353.140883 198.232346,353.422652 C197.580862,353.704421 197.029615,354.064915 196.578588,354.504144 C196.12756,354.943372 195.780943,355.432318 195.538724,355.970994 C195.296506,356.509671 195.175399,357.035909 195.175399,357.549724 C195.175399,358.511055 195.384204,359.277621 195.801822,359.849448 C196.21944,360.421274 196.741455,360.885357 197.367882,361.241713 C197.994308,361.598068 198.675015,361.892264 199.410023,362.124309 C200.14503,362.356355 200.825737,362.604971 201.452164,362.870166 C202.078591,363.13536 202.600605,363.466849 203.018223,363.864641 C203.435841,364.262433 203.644647,364.809389 203.644647,365.505525 C203.644647,366.002765 203.561125,366.466849 203.394077,366.89779 C203.22703,367.328731 202.984816,367.709943 202.667426,368.041436 C202.350036,368.37293 201.965834,368.633977 201.514806,368.824586 C201.063779,369.015194 200.554293,369.110497 199.986333,369.110497 C199.418372,369.110497 198.925591,369.040056 198.507973,368.899171 C198.090355,368.758287 197.71868,368.60083 197.392938,368.426796 C197.067197,368.252762 196.787397,368.095305 196.553531,367.95442 C196.319665,367.813535 196.110859,367.743094 195.927107,367.743094 C195.609717,367.743094 195.375855,367.854971 195.225513,368.078729 C195.07517,368.302487 195,368.563534 195,368.861878 C195,369.176797 195.146164,369.462706 195.438497,369.719613 C195.730829,369.976521 196.115032,370.200275 196.591116,370.390884 C197.067201,370.581493 197.601743,370.730662 198.194761,370.838398 C198.787778,370.946133 199.376611,371 199.961276,371 C200.930149,371 201.790429,370.846687 202.542141,370.540055 C203.293853,370.233424 203.924447,369.823207 204.433941,369.309392 C204.943435,368.795578 205.331813,368.198898 205.599089,367.519337 C205.866364,366.839776 206,366.135363 206,365.406077 C206,364.411597 205.791194,363.611881 205.373576,363.006906 C204.955958,362.401931 204.433944,361.912985 203.807517,361.540055 C203.18109,361.167125 202.500383,360.864642 201.765376,360.632597 C201.030368,360.400551 200.349661,360.151935 199.723235,359.88674 C199.096808,359.621546 198.574793,359.302488 198.157175,358.929558 C197.739558,358.556628 197.530752,358.046965 197.530752,357.400552 C197.530752,356.654692 197.798023,356.049726 198.332574,355.585635 C198.867125,355.121545 199.543656,354.889503 200.362187,354.889503 C200.913442,354.889503 201.360287,354.947513 201.702733,355.063536 C202.04518,355.179559 202.337508,355.312154 202.579727,355.461326 C202.821945,355.610498 203.034927,355.743093 203.218679,355.859116 C203.402431,355.975139 203.619589,356.033149 203.870159,356.033149 C204.15414,356.033149 204.383826,355.937846 204.559226,355.747238 C204.734625,355.556629 204.822323,355.328731 204.822323,355.063536 C204.822323,354.781767 204.69704,354.512432 204.446469,354.255525 C204.195899,353.998617 203.865985,353.779006 203.45672,353.596685 C203.047454,353.414364 202.579729,353.269338 202.053531,353.161602 C201.527332,353.053867 200.988613,353 200.437358,353 L200.437358,353 Z" id="path-9"></path>
        <filter x="-4.5%" y="-2.8%" width="118.2%" height="111.1%" filterUnits="objectBoundingBox" id="filter-10">
            <feOffset dx="1" dy="1" in="SourceAlpha" result="shadowOffsetOuter1"></feOffset>
            <feColorMatrix values="0 0 0 0 1   0 0 0 0 1   0 0 0 0 1  0 0 0 1 0" type="matrix" in="shadowOffsetOuter1"></feColorMatrix>
        </filter>
        <path d="M280,369.786517 C280,370.123597 280.088929,370.410111 280.266791,370.646067 C280.444653,370.882024 280.735694,371 281.139925,371 L285.626866,371 C286.791051,371 287.829908,370.776688 288.74347,370.330056 C289.657032,369.883425 290.429101,369.259835 291.059701,368.45927 C291.690302,367.658704 292.171329,366.702253 292.502799,365.589888 C292.834268,364.477523 293,363.247198 293,361.898876 C293,360.702241 292.842352,359.568826 292.527052,358.498596 C292.211752,357.428365 291.734767,356.484555 291.096082,355.667135 C290.457397,354.849715 289.661074,354.200845 288.70709,353.720506 C287.753105,353.240166 286.62936,353 285.335821,353 L281.139925,353 C280.735694,353 280.444653,353.117976 280.266791,353.353933 C280.088929,353.589889 280,353.876403 280,354.213483 L280,369.786517 Z M282.134328,354.921348 L285.044776,354.921348 C286.063438,354.921348 286.932521,355.110953 287.652052,355.490169 C288.371583,355.869384 288.957709,356.37921 289.410448,357.019663 C289.863186,357.660116 290.194651,358.401681 290.404851,359.244382 C290.615051,360.087083 290.720149,360.971905 290.720149,361.898876 C290.720149,362.808993 290.619093,363.698029 290.416978,364.566011 C290.214862,365.433993 289.895525,366.200839 289.458955,366.866573 C289.022386,367.532307 288.452429,368.067414 287.749067,368.47191 C287.045705,368.876407 286.192791,369.078652 285.190299,369.078652 L282.134328,369.078652 L282.134328,354.921348 Z" id="path-11"></path>
        <filter x="-3.8%" y="-2.8%" width="115.4%" height="111.1%" filterUnits="objectBoundingBox" id="filter-12">
            <feOffset dx="1" dy="1" in="SourceAlpha" result="shadowOffsetOuter1"></feOffset>
            <feColorMatrix values="0 0 0 0 1   0 0 0 0 1   0 0 0 0 1  0 0 0 1 0" type="matrix" in="shadowOffsetOuter1"></feColorMatrix>
        </filter>
        <path d="M194.668367,285.165746 L192.244898,271.019337 C192.12585,270.339776 191.717691,270 191.020408,270 C190.697277,270 190.446429,270.095303 190.267857,270.285912 C190.089285,270.47652 190,270.712706 190,270.994475 C190,271.127072 190.008503,271.280386 190.02551,271.45442 C190.042517,271.628454 190.07653,271.848065 190.127551,272.11326 L192.882653,286.558011 C192.916667,286.756907 192.967687,286.943369 193.035714,287.117403 C193.103742,287.291437 193.197278,287.444751 193.316327,287.577348 C193.435375,287.709945 193.592686,287.813536 193.788265,287.888122 C193.983845,287.962708 194.217686,288 194.489796,288 C194.931975,288 195.289114,287.912984 195.561224,287.73895 C195.833335,287.564916 196.062924,287.171274 196.25,286.558011 L199.97449,273.58011 L203.75,286.558011 C203.937076,287.171274 204.166665,287.564916 204.438776,287.73895 C204.710886,287.912984 205.068025,288 205.510204,288 C206.071431,288 206.462584,287.854974 206.683673,287.564917 C206.904763,287.27486 207.049319,286.939228 207.117347,286.558011 L209.872449,272.11326 C209.92347,271.848065 209.957483,271.628454 209.97449,271.45442 C209.991497,271.280386 210,271.127072 210,270.994475 C210,270.712706 209.910715,270.47652 209.732143,270.285912 C209.553571,270.095303 209.302723,270 208.979592,270 C208.282309,270 207.87415,270.339776 207.755102,271.019337 L205.382653,285.165746 L201.147959,270.870166 C201.045918,270.538672 200.901361,270.310774 200.714286,270.186464 C200.52721,270.062154 200.289117,270 200,270 C199.710883,270 199.47279,270.062154 199.285714,270.186464 C199.098639,270.310774 198.954082,270.538672 198.852041,270.870166 L194.668367,285.165746 Z" id="path-13"></path>
        <filter x="-2.5%" y="-2.8%" width="110.0%" height="111.1%" filterUnits="objectBoundingBox" id="filter-14">
            <feOffset dx="1" dy="1" in="SourceAlpha" result="shadowOffsetOuter1"></feOffset>
            <feColorMatrix values="0 0 0 0 1   0 0 0 0 1   0 0 0 0 1  0 0 0 1 0" type="matrix" in="shadowOffsetOuter1"></feColorMatrix>
        </filter>
        <filter x="-33.0%" y="-16.6%" width="165.9%" height="133.1%" filterUnits="objectBoundingBox" id="filter-15">
            <feGaussianBlur stdDeviation="20" in="SourceGraphic"></feGaussianBlur>
        </filter>
        <filter x="-19.8%" y="-9.9%" width="139.6%" height="119.9%" filterUnits="objectBoundingBox" id="filter-16">
            <feGaussianBlur stdDeviation="12" in="SourceGraphic"></feGaussianBlur>
        </filter>
        <filter x="-6.6%" y="-3.3%" width="113.2%" height="106.6%" filterUnits="objectBoundingBox" id="filter-17">
            <feGaussianBlur stdDeviation="4" in="SourceGraphic"></feGaussianBlur>
        </filter>
        <linearGradient x1="50%" y1="9.60230406%" x2="27.0810821%" y2="87.6355804%" id="linearGradient-18">
            <stop stop-color="#F4F4F4" offset="0%"></stop>
            <stop stop-color="#D9D9DB" offset="61.2952046%"></stop>
            <stop stop-color="#F6F6F6" offset="100%"></stop>
        </linearGradient>
        <linearGradient x1="55.0812797%" y1="36.9111015%" x2="89.2198559%" y2="88.1938635%" id="linearGradient-19">
            <stop stop-color="#F6F7F9" offset="0%"></stop>
            <stop stop-color="#DBDCE0" offset="100%"></stop>
        </linearGradient>
        <linearGradient x1="79.2156875%" y1="3.70729706%" x2="20.2320302%" y2="97.96134%" id="linearGradient-20">
            <stop stop-color="#F3F3F3" offset="0%"></stop>
            <stop stop-color="#DCDEE1" offset="21.5102838%"></stop>
            <stop stop-color="#E0E3E5" offset="100%"></stop>
        </linearGradient>
        <linearGradient x1="70.1793932%" y1="25.3366377%" x2="0%" y2="87.211087%" id="linearGradient-21">
            <stop stop-color="#FFFFFF" stop-opacity="0" offset="0%"></stop>
            <stop stop-color="#FFFFFF" stop-opacity="0.327473958" offset="100%"></stop>
        </linearGradient>
        <path d="M480.080627,394.009178 L480.050722,394.009241 C480.050722,394.009241 479.731959,380.520465 480.692638,332.819403 C480.94919,320.08074 482.026665,304.902168 482.354149,286.889002 C482.958863,253.626877 495.833179,234.885062 512.908696,224.309191 C537.619284,209.004472 569.525623,210.89276 574.348444,211.280013 L574.348444,211.280013 C582.685677,210.814652 611.386948,210.395592 634.040582,224.426318 C651.116099,235.002189 663.990415,253.744004 664.595129,287.006129 C664.922613,305.019295 666.000088,320.197867 666.256639,332.93653 C667.014415,370.562728 666.976132,386.902308 666.926156,392.125954 L666.949278,392.125905 C666.949278,392.125905 667.268041,413.479535 666.307362,461.180597 C666.05081,473.91926 664.973335,489.097832 664.645851,507.110998 C664.041137,540.373123 651.166821,559.114938 634.091304,569.690809 C609.380716,584.995528 577.474377,583.10724 572.651556,582.719987 C564.314323,583.185348 535.613052,583.604408 512.959418,569.573682 C495.883901,558.997811 483.009585,540.255996 482.404871,506.993871 C482.077387,488.980705 480.999912,473.802133 480.743361,461.06347 C479.951294,421.734599 480.028963,400.316122 480.080627,394.009178 L480.080627,394.009178 Z" id="path-22"></path>
        <filter x="-32.6%" y="-16.4%" width="165.2%" height="132.8%" filterUnits="objectBoundingBox" id="filter-23">
            <feGaussianBlur stdDeviation="24" in="SourceAlpha" result="shadowBlurInner1"></feGaussianBlur>
            <feOffset dx="0" dy="0" in="shadowBlurInner1" result="shadowOffsetInner1"></feOffset>
            <feComposite in="shadowOffsetInner1" in2="SourceAlpha" operator="arithmetic" k2="-1" k3="1" result="shadowInnerInner1"></feComposite>
            <feColorMatrix values="0 0 0 0 1   0 0 0 0 1   0 0 0 0 1  0 0 0 1 0" type="matrix" in="shadowInnerInner1" result="shadowMatrixInner1"></feColorMatrix>
            <feGaussianBlur stdDeviation="14" in="SourceAlpha" result="shadowBlurInner2"></feGaussianBlur>
            <feOffset dx="0" dy="0" in="shadowBlurInner2" result="shadowOffsetInner2"></feOffset>
            <feComposite in="shadowOffsetInner2" in2="SourceAlpha" operator="arithmetic" k2="-1" k3="1" result="shadowInnerInner2"></feComposite>
            <feColorMatrix values="0 0 0 0 1   0 0 0 0 1   0 0 0 0 1  0 0 0 1 0" type="matrix" in="shadowInnerInner2" result="shadowMatrixInner2"></feColorMatrix>
            <feGaussianBlur stdDeviation="1" in="SourceAlpha" result="shadowBlurInner3"></feGaussianBlur>
            <feOffset dx="-20" dy="0" in="shadowBlurInner3" result="shadowOffsetInner3"></feOffset>
            <feComposite in="shadowOffsetInner3" in2="SourceAlpha" operator="arithmetic" k2="-1" k3="1" result="shadowInnerInner3"></feComposite>
            <feColorMatrix values="0 0 0 0 1   0 0 0 0 1   0 0 0 0 1  0 0 0 0.4 0" type="matrix" in="shadowInnerInner3" result="shadowMatrixInner3"></feColorMatrix>
            <feGaussianBlur stdDeviation="30" in="SourceAlpha" result="shadowBlurInner4"></feGaussianBlur>
            <feOffset dx="40" dy="-60" in="shadowBlurInner4" result="shadowOffsetInner4"></feOffset>
            <feComposite in="shadowOffsetInner4" in2="SourceAlpha" operator="arithmetic" k2="-1" k3="1" result="shadowInnerInner4"></feComposite>
            <feColorMatrix values="0 0 0 0 0.905882353   0 0 0 0 0.909803922   0 0 0 0 0.925490196  0 0 0 0.748669611 0" type="matrix" in="shadowInnerInner4" result="shadowMatrixInner4"></feColorMatrix>
            <feMerge>
                <feMergeNode in="shadowMatrixInner1"></feMergeNode>
                <feMergeNode in="shadowMatrixInner2"></feMergeNode>
                <feMergeNode in="shadowMatrixInner3"></feMergeNode>
                <feMergeNode in="shadowMatrixInner4"></feMergeNode>
            </feMerge>
        </filter>
        <linearGradient x1="30.7361452%" y1="1.85997675%" x2="112.306346%" y2="78.4950633%" id="linearGradient-24">
            <stop stop-color="#FFFFFF" stop-opacity="0" offset="0%"></stop>
            <stop stop-color="#FFFFFF" offset="22.2932751%"></stop>
            <stop stop-color="#FFFFFF" stop-opacity="0.565981658" offset="54.8458633%"></stop>
            <stop stop-color="#FFFFFF" stop-opacity="0.403702446" offset="100%"></stop>
        </linearGradient>
        <linearGradient x1="36.500936%" y1="65.6825596%" x2="13.9905871%" y2="81.4760552%" id="linearGradient-25">
            <stop stop-color="#FFFFFF" stop-opacity="0" offset="0%"></stop>
            <stop stop-color="#FFFFFF" offset="100%"></stop>
        </linearGradient>
        <filter x="-8.3%" y="-6.6%" width="116.7%" height="113.1%" filterUnits="objectBoundingBox" id="filter-26">
            <feGaussianBlur stdDeviation="3.16865809" in="SourceGraphic"></feGaussianBlur>
        </filter>
        <filter x="-127.4%" y="-151.6%" width="354.8%" height="403.1%" filterUnits="objectBoundingBox" id="filter-27">
            <feGaussianBlur stdDeviation="47.9928768" in="SourceGraphic"></feGaussianBlur>
        </filter>
        <linearGradient x1="47.3088887%" y1="61.7330524%" x2="19.0828542%" y2="85.0996831%" id="linearGradient-28">
            <stop stop-color="#FFFFFF" stop-opacity="0" offset="0%"></stop>
            <stop stop-color="#FFFFFF" offset="100%"></stop>
        </linearGradient>
        <filter x="-24.7%" y="-16.1%" width="149.5%" height="132.2%" filterUnits="objectBoundingBox" id="filter-29">
            <feGaussianBlur stdDeviation="8" in="SourceGraphic"></feGaussianBlur>
        </filter>
        <rect id="path-30" x="21" y="503" width="392" height="77" rx="12"></rect>
        <path d="M527,372 C543.568542,372 557,366.658555 557,307 C557,247.341445 543.568542,242 527,242 C510.431458,242 497,258.369681 497,307 C497,355.630319 510.431458,372 527,372 Z" id="path-31"></path>
        <filter x="0.0%" y="0.0%" width="100.0%" height="100.0%" filterUnits="objectBoundingBox" id="filter-32">
            <feOffset dx="0" dy="0" in="SourceAlpha" result="shadowOffsetOuter1"></feOffset>
            <feColorMatrix values="0 0 0 0 0.908561862   0 0 0 0 0.0234991438   0 0 0 0 0.0234991438  0 0 0 0.5 0" type="matrix" in="shadowOffsetOuter1"></feColorMatrix>
        </filter>
        <rect id="path-33" x="21" y="88" width="110" height="66" rx="12"></rect>
        <path d="M69.8879056,122.3125 C70.3441517,122.3125 70.6509333,122.216913 70.8082596,122.025735 C70.9655858,121.834558 71.0442478,121.555762 71.0442478,121.189338 C71.0442478,120.424629 70.9223218,119.671879 70.6784661,118.931066 C70.4346104,118.190254 70.0845647,117.529108 69.6283186,116.94761 C69.1720724,116.366112 68.6057064,115.896141 67.9292035,115.537684 C67.2527006,115.179226 66.4896798,115 65.640118,115 C64.759091,115 63.9685384,115.175243 63.2684366,115.525735 C62.5683347,115.876227 61.9783701,116.350181 61.4985251,116.94761 C61.01868,117.54504 60.6489688,118.238048 60.3893805,119.026654 C60.1297922,119.815261 60,120.639702 60,121.5 C60,122.344367 60.1101267,123.156859 60.3303835,123.9375 C60.5506402,124.718141 60.8967528,125.411149 61.3687316,126.016544 C61.8407103,126.621939 62.4385411,127.103859 63.1622419,127.462316 C63.8859427,127.820774 64.7512241,128 65.7581121,128 C66.3716845,128 66.9773815,127.912378 67.5752212,127.737132 C68.173061,127.561886 68.7118953,127.342832 69.1917404,127.079963 C69.6715855,126.817094 70.057029,126.534315 70.3480826,126.231618 C70.6391362,125.92892 70.7846608,125.650124 70.7846608,125.395221 C70.7846608,125.092523 70.7059988,124.86152 70.5486726,124.702206 C70.3913463,124.542891 70.21829,124.463235 70.0294985,124.463235 C69.840707,124.463235 69.6401191,124.550857 69.4277286,124.726103 C69.2153382,124.901349 68.9557537,125.096506 68.6489676,125.311581 C68.3421814,125.526655 67.9606709,125.725796 67.5044248,125.909007 C67.0481786,126.092219 66.4739464,126.183824 65.7817109,126.183824 C65.1996038,126.183824 64.6804349,126.084253 64.2241888,125.88511 C63.7679427,125.685967 63.378566,125.411154 63.0560472,125.060662 C62.7335284,124.71017 62.4896763,124.299941 62.3244838,123.829963 C62.1592912,123.359985 62.0766962,122.854169 62.0766962,122.3125 L69.8879056,122.3125 Z M62.0766962,120.735294 C62.0924288,120.257351 62.1671576,119.779414 62.300885,119.301471 C62.4346123,118.823527 62.6430664,118.397367 62.9262537,118.022978 C63.2094409,117.648589 63.5712859,117.345896 64.0117994,117.11489 C64.4523129,116.883884 64.9950804,116.784314 65.640118,116.816176 C66.2064925,116.816176 66.7020628,116.935661 67.1268437,117.174632 C67.5516245,117.413604 67.8977371,117.72028 68.1651917,118.094669 C68.4326464,118.469058 68.6332343,118.887253 68.7669617,119.349265 C68.900689,119.811277 68.9675516,120.273282 68.9675516,120.735294 L62.0766962,120.735294 Z M72.7433628,118.584559 C72.7433628,119.174023 72.9085529,119.671873 73.2389381,120.078125 C73.5693232,120.484377 73.9822984,120.834864 74.4778761,121.129596 C74.9734538,121.424327 75.5122881,121.687192 76.0943953,121.918199 C76.6765024,122.149205 77.2153368,122.38419 77.7109145,122.623162 C78.2064922,122.862134 78.6194674,123.124999 78.9498525,123.411765 C79.2802376,123.698531 79.4454277,124.049018 79.4454277,124.463235 C79.4454277,124.893385 79.2291074,125.287682 78.7964602,125.64614 C78.363813,126.004597 77.7699153,126.183824 77.0147493,126.183824 C76.4483747,126.183824 75.9685369,126.104167 75.5752212,125.944853 C75.1819056,125.785538 74.835793,125.606312 74.5368732,125.407169 C74.2379533,125.208026 73.9783688,125.0288 73.7581121,124.869485 C73.5378553,124.710171 73.3097357,124.630515 73.0737463,124.630515 C72.8534896,124.630515 72.6568347,124.718136 72.4837758,124.893382 C72.3107169,125.068628 72.2241888,125.299631 72.2241888,125.586397 C72.2241888,125.857232 72.3461148,126.136028 72.5899705,126.422794 C72.8338262,126.70956 73.1681395,126.968442 73.5929204,127.199449 C74.0177012,127.430455 74.5172046,127.621629 75.0914454,127.772978 C75.6656863,127.924327 76.2831825,128 76.9439528,128 C77.5260599,128 78.092426,127.920344 78.6430678,127.761029 C79.1937097,127.601715 79.6814138,127.358764 80.1061947,127.032169 C80.5309756,126.705574 80.873155,126.299328 81.1327434,125.813419 C81.3923317,125.32751 81.5221239,124.750003 81.5221239,124.080882 C81.5221239,123.459556 81.3569338,122.941791 81.0265487,122.527574 C80.6961635,122.113356 80.2831883,121.758886 79.7876106,121.464154 C79.2920329,121.169423 78.7531986,120.914523 78.1710914,120.699449 C77.5889843,120.484374 77.05015,120.269303 76.5545723,120.054228 C76.0589946,119.839153 75.6460194,119.604168 75.3156342,119.349265 C74.9852491,119.094361 74.820059,118.783703 74.820059,118.417279 C74.820059,117.87561 75.0363794,117.473347 75.4690265,117.210478 C75.9016737,116.947609 76.4169095,116.816176 77.0147493,116.816176 C77.5181933,116.816176 77.9272354,116.883884 78.2418879,117.019301 C78.5565404,117.154719 78.823991,117.302083 79.0442478,117.461397 C79.2645045,117.620712 79.4650925,117.768075 79.6460177,117.903493 C79.8269429,118.03891 80.0275309,118.106618 80.2477876,118.106618 C80.5624401,118.106618 80.798426,118.018996 80.9557522,117.84375 C81.1130785,117.668504 81.1917404,117.469364 81.1917404,117.246324 C81.1917404,116.911763 81.054082,116.60907 80.7787611,116.338235 C80.5034401,116.067401 80.1612606,115.832415 79.7522124,115.633272 C79.3431641,115.434129 78.8908579,115.2788 78.3952802,115.167279 C77.8997025,115.055759 77.4395301,115 77.0147493,115 C76.4955726,115 75.9803369,115.075673 75.4690265,115.227022 C74.9577162,115.378371 74.5014769,115.605391 74.100295,115.908088 C73.699113,116.210786 73.372666,116.585169 73.120944,117.03125 C72.8692219,117.477331 72.7433628,117.995095 72.7433628,118.584559 L72.7433628,118.584559 Z M82.9616519,121.5 C82.9616519,122.344367 83.0757117,123.156859 83.3038348,123.9375 C83.5319579,124.718141 83.8820035,125.411149 84.3539823,126.016544 C84.8259611,126.621939 85.4159257,127.103859 86.1238938,127.462316 C86.8318619,127.820774 87.6656786,128 88.6253687,128 C89.7109199,128 90.5329372,127.824757 91.0914454,127.474265 C91.6499536,127.123773 91.9292035,126.749389 91.9292035,126.351103 C91.9292035,126.064337 91.8544747,125.845283 91.7050147,125.693934 C91.5555548,125.542585 91.362833,125.466912 91.1268437,125.466912 C90.9695174,125.466912 90.8161266,125.502757 90.6666667,125.574449 C90.5172067,125.64614 90.3520166,125.729779 90.1710914,125.825368 C89.9901663,125.920956 89.777779,126.004595 89.5339233,126.076287 C89.2900676,126.147978 88.9872191,126.183824 88.6253687,126.183824 C87.9803311,126.183824 87.4296975,126.040443 86.9734513,125.753676 C86.5172052,125.46691 86.147494,125.09651 85.8643068,124.642463 C85.5811195,124.188417 85.3726654,123.686584 85.2389381,123.136949 C85.1052107,122.587313 85.0383481,122.041669 85.0383481,121.5 C85.0383481,120.958331 85.1052107,120.412687 85.2389381,119.863051 C85.3726654,119.313416 85.5811195,118.811583 85.8643068,118.357537 C86.147494,117.90349 86.5172052,117.53309 86.9734513,117.246324 C87.4296975,116.959557 87.9803311,116.816176 88.6253687,116.816176 C88.9872191,116.816176 89.2822014,116.852022 89.5103245,116.923713 C89.7384476,116.995405 89.9429686,117.071078 90.1238938,117.150735 C90.304819,117.230393 90.4700091,117.306066 90.619469,117.377757 C90.768929,117.449449 90.9459183,117.485294 91.1504425,117.485294 C91.4021645,117.485294 91.6066855,117.39369 91.7640118,117.210478 C91.9213381,117.027266 92,116.824143 92,116.601103 C92,116.170954 91.7050177,115.79657 91.1150442,115.477941 C90.5250708,115.159312 89.6951873,115 88.6253687,115 C87.6656786,115 86.8318619,115.179226 86.1238938,115.537684 C85.4159257,115.896141 84.8259611,116.378061 84.3539823,116.983456 C83.8820035,117.588851 83.5319579,118.281859 83.3038348,119.0625 C83.0757117,119.843141 82.9616519,120.655633 82.9616519,121.5 L82.9616519,121.5 Z" id="path-34"></path>
        <filter x="-1.6%" y="-3.8%" width="106.2%" height="115.4%" filterUnits="objectBoundingBox" id="filter-35">
            <feOffset dx="1" dy="1" in="SourceAlpha" result="shadowOffsetOuter1"></feOffset>
            <feColorMatrix values="0 0 0 0 1   0 0 0 0 1   0 0 0 0 1  0 0 0 1 0" type="matrix" in="shadowOffsetOuter1"></feColorMatrix>
        </filter>
    </defs>
    <g id="Page-1" stroke="none" stroke-width="1" fill="none" fill-rule="evenodd">
        <g id="Group-2" transform="translate(-20.000000, -7.000000)">
            <g id="key">
                <use fill="url(#linearGradient-1)" fill-rule="evenodd" xlink:href="#path-3"></use>
                <rect stroke="#FFFFFF" stroke-width="8" x="166" y="245" width="70" height="65" rx="12"></rect>
                <rect stroke="url(#linearGradient-2)" stroke-width="6" x="165" y="244" width="72" height="67" rx="12"></rect>
                <rect stroke="#8A8A8A" stroke-width="2" x="163" y="242" width="76" height="71" rx="12"></rect>
                <rect stroke-opacity="0.6" stroke="#818181" stroke-width="1" x="161.5" y="240.5" width="79" height="74" rx="12"></rect>
            </g>
            <g id="key">
                <use fill="url(#linearGradient-1)" fill-rule="evenodd" xlink:href="#path-4"></use>
                <rect stroke="#FFFFFF" stroke-width="8" x="80" y="329" width="70" height="65" rx="12"></rect>
                <rect stroke="url(#linearGradient-2)" stroke-width="6" x="79" y="328" width="72" height="67" rx="12"></rect>
                <rect stroke="#8A8A8A" stroke-width="2" x="77" y="326" width="76" height="71" rx="12"></rect>
                <rect stroke-opacity="0.6" stroke="#818181" stroke-width="1" x="75.5" y="324.5" width="79" height="74" rx="12"></rect>
            </g>
            <g id="key">
                <use fill="url(#linearGradient-1)" fill-rule="evenodd" xlink:href="#path-5"></use>
                <rect stroke="#FFFFFF" stroke-width="8" x="166" y="329" width="70" height="65" rx="12"></rect>
                <rect stroke="url(#linearGradient-2)" stroke-width="6" x="165" y="328" width="72" height="67" rx="12"></rect>
                <rect stroke="#8A8A8A" stroke-width="2" x="163" y="326" width="76" height="71" rx="12"></rect>
                <rect stroke-opacity="0.6" stroke="#818181" stroke-width="1" x="161.5" y="324.5" width="79" height="74" rx="12"></rect>
            </g>
            <g id="key">
                <use fill="url(#linearGradient-1)" fill-rule="evenodd" xlink:href="#path-6"></use>
                <rect stroke="#FFFFFF" stroke-width="8" x="251" y="329" width="70" height="65" rx="12"></rect>
                <rect stroke="url(#linearGradient-2)" stroke-width="6" x="250" y="328" width="72" height="67" rx="12"></rect>
                <rect stroke="#8A8A8A" stroke-width="2" x="248" y="326" width="76" height="71" rx="12"></rect>
                <rect stroke-opacity="0.6" stroke="#818181" stroke-width="1" x="246.5" y="324.5" width="79" height="74" rx="12"></rect>
            </g>
            <g id="A">
                <use fill="black" fill-opacity="1" filter="url(#filter-8)" xlink:href="#path-7"></use>
                <use fill="#6E6F71" fill-rule="evenodd" xlink:href="#path-7"></use>
            </g>
            <g id="S">
                <use fill="black" fill-opacity="1" filter="url(#filter-10)" xlink:href="#path-9"></use>
                <use fill="#6E6F71" fill-rule="evenodd" xlink:href="#path-9"></use>
            </g>
            <g id="D">
                <use fill="black" fill-opacity="1" filter="url(#filter-12)" xlink:href="#path-11"></use>
                <use fill="#6E6F71" fill-rule="evenodd" xlink:href="#path-11"></use>
            </g>
            <g id="W">
                <use fill="black" fill-opacity="1" filter="url(#filter-14)" xlink:href="#path-13"></use>
                <use fill="#6E6F71" fill-rule="evenodd" xlink:href="#path-13"></use>
            </g>
            <path d="M479.078471,406.089576 L479.049366,406.089637 C479.049366,406.089637 478.739126,392.963463 479.674119,346.544688 C479.92381,334.148462 480.972476,319.377917 481.291204,301.848975 C481.879749,269.480993 494.409831,251.24299 511.028784,240.951417 C535.078661,226.058116 566.13189,227.895643 570.825758,228.272485 L570.825758,228.272485 C578.94007,227.819635 606.873928,227.411839 628.92185,241.065395 C645.540802,251.356969 658.070885,269.594971 658.65943,301.962954 C658.978158,319.491895 660.026823,334.262441 660.276515,346.658666 C661.01403,383.273407 660.97677,399.173751 660.928131,404.256976 L660.950634,404.256929 C660.950634,404.256929 661.260874,425.036537 660.325881,471.455312 C660.07619,483.851538 659.027524,498.622083 658.708796,516.151025 C658.120251,548.519007 645.590169,566.75701 628.971216,577.048583 C604.921339,591.941884 573.86811,590.104357 569.174242,589.727515 C561.05993,590.180365 533.126072,590.588161 511.07815,576.934605 C494.459198,566.643031 481.929115,548.405029 481.34057,516.037046 C481.021842,498.508105 479.973177,483.737559 479.723485,471.341334 C478.952596,433.06969 479.028189,412.226979 479.078471,406.089576 L479.078471,406.089576 Z" id="Combined-Shape" fill="#000000" opacity="0.1" filter="url(#filter-15)"></path>
            <path d="M481.078471,404.089576 L481.049366,404.089637 C481.049366,404.089637 480.739126,390.963463 481.674119,344.544688 C481.92381,332.148462 482.972476,317.377917 483.291204,299.848975 C483.879749,267.480993 496.409831,249.24299 513.028784,238.951417 C537.078661,224.058116 568.13189,225.895643 572.825758,226.272485 L572.825758,226.272485 C580.94007,225.819635 608.873928,225.411839 630.92185,239.065395 C647.540802,249.356969 660.070885,267.594971 660.65943,299.962954 C660.978158,317.491895 662.026823,332.262441 662.276515,344.658666 C663.01403,381.273407 662.97677,397.173751 662.928131,402.256976 L662.950634,402.256929 C662.950634,402.256929 663.260874,423.036537 662.325881,469.455312 C662.07619,481.851538 661.027524,496.622083 660.708796,514.151025 C660.120251,546.519007 647.590169,564.75701 630.971216,575.048583 C606.921339,589.941884 575.86811,588.104357 571.174242,587.727515 C563.05993,588.180365 535.126072,588.588161 513.07815,574.934605 C496.459198,564.643031 483.929115,546.405029 483.34057,514.037046 C483.021842,496.508105 481.973177,481.737559 481.723485,469.341334 C480.952596,431.06969 481.028189,410.226979 481.078471,404.089576 L481.078471,404.089576 Z" id="Combined-Shape" fill="#000000" opacity="0.1" filter="url(#filter-16)"></path>
            <path d="M484.078471,397.089576 L484.049366,397.089637 C484.049366,397.089637 483.739126,383.963463 484.674119,337.544688 C484.92381,325.148462 485.972476,310.377917 486.291204,292.848975 C486.879749,260.480993 499.409831,242.24299 516.028784,231.951417 C540.078661,217.058116 571.13189,218.895643 575.825758,219.272485 L575.825758,219.272485 C583.94007,218.819635 611.873928,218.411839 633.92185,232.065395 C650.540802,242.356969 663.070885,260.594971 663.65943,292.962954 C663.978158,310.491895 665.026823,325.262441 665.276515,337.658666 C666.01403,374.273407 665.97677,390.173751 665.928131,395.256976 L665.950634,395.256929 C665.950634,395.256929 666.260874,416.036537 665.325881,462.455312 C665.07619,474.851538 664.027524,489.622083 663.708796,507.151025 C663.120251,539.519007 650.590169,557.75701 633.971216,568.048583 C609.921339,582.941884 578.86811,581.104357 574.174242,580.727515 C566.05993,581.180365 538.126072,581.588161 516.07815,567.934605 C499.459198,557.643031 486.929115,539.405029 486.34057,507.037046 C486.021842,489.508105 484.973177,474.737559 484.723485,462.341334 C483.952596,424.06969 484.028189,403.226979 484.078471,397.089576 L484.078471,397.089576 Z" id="Combined-Shape" fill="#000000" opacity="0.1" filter="url(#filter-17)"></path>
            <g id="Combined-Shape">
                <use fill="url(#linearGradient-18)" fill-rule="evenodd" xlink:href="#path-22"></use>
                <use fill="url(#linearGradient-19)" fill-rule="evenodd" xlink:href="#path-22"></use>
                <use fill="black" fill-opacity="1" filter="url(#filter-23)" xlink:href="#path-22"></use>
                <path stroke="url(#linearGradient-20)" stroke-width="8" d="M662.983882,396.134264 L666.957701,396.125896 L666.949278,392.125905 L662.949723,392.18561 C662.951231,392.286631 662.953938,392.495087 662.957448,392.812218 C662.963336,393.344277 662.969234,393.987486 662.974745,394.743083 C662.978066,395.198314 662.981114,395.662034 662.983882,396.134264 Z M484.007775,390.000899 L480.042299,390.00925 L480.050722,394.009241 L484.049606,393.91474 C484.048251,393.8574 484.045667,393.727654 484.042255,393.520402 C484.03645,393.167774 484.030616,392.727362 484.025151,392.194058 C484.018107,391.506525 484.012292,390.775768 484.007775,390.000899 Z M484.007775,390.000899 C483.947212,379.610826 484.120069,361.289719 484.691828,332.899945 C484.797813,327.637415 484.805716,327.445521 485.539249,310.971296 C485.977093,301.137876 486.218706,294.375343 486.353488,286.961711 C486.883697,257.797705 496.989806,238.873764 515.014879,227.709778 C525.390249,221.283702 537.931133,217.508597 551.56052,215.881925 C556.608145,215.279489 561.532437,215.009016 566.196329,215.000216 C569.379895,214.99421 572.03586,215.107196 574.028291,215.26718 L574.299603,215.288965 L574.571365,215.273796 C581.340414,214.895967 589.516313,215.117956 598.255805,216.376304 C610.822263,218.185674 622.323954,221.874592 631.934399,227.826905 C649.959471,238.990891 660.06558,257.914832 660.595789,287.078838 C660.730571,294.49247 660.972185,301.255003 661.410028,311.088423 C662.143561,327.562648 662.151465,327.754542 662.25745,333.017072 C662.865058,363.186893 663.02255,382.031307 662.926339,392.087687 L662.887623,396.134467 L662.983882,396.134264 C663.065905,410.125509 662.902542,431.587563 662.308172,461.100055 C662.202187,466.362585 662.194284,466.554479 661.460751,483.028704 C661.022907,492.862124 660.781294,499.624657 660.646512,507.038289 C660.116303,536.202295 650.010194,555.126236 631.985121,566.290222 C621.609751,572.716298 609.068867,576.491403 595.43948,578.118075 C590.391855,578.720511 585.467563,578.990984 580.803671,578.999784 C577.620105,579.00579 574.96414,578.892804 572.971709,578.73282 L572.700397,578.711035 L572.428635,578.726204 C565.659586,579.104033 557.483687,578.882044 548.744195,577.623696 C536.177737,575.814326 524.676046,572.125408 515.065601,566.173095 C497.040529,555.009109 486.93442,536.085168 486.404211,506.921162 C486.269429,499.50753 486.027815,492.744997 485.589972,482.911577 C484.856439,466.437352 484.848535,466.245458 484.74255,460.982928 C484.114489,429.797537 483.968472,407.71704 484.080493,394.041943 L484.113597,390.000676 L484.007775,390.000899 Z"></path>
                <use stroke="url(#linearGradient-21)" stroke-width="2" xlink:href="#path-22"></use>
            </g>
            <path d="M511,231.66263 C513.936805,228.796636 517.106966,226.321222 520.444765,224.182849 C544.107207,209.023416 574.66018,210.893778 579.278432,211.277354 L579.278432,211.277354 C587.262025,210.816412 614.745879,210.401329 636.438617,224.298864 C652.789844,234.774339 665.118072,253.338241 665.697136,286.284614 C666.010729,304.126783 667.042501,319.161267 667.28817,331.779003 C668.013804,369.048021 667.977144,385.232491 667.929289,390.40655 L667.951429,390.406502 C667.951429,390.406502 668.256672,411.557425 667.336741,458.805667 C667.091072,471.423403 666.0593,486.457887 665.745707,504.300057 C665.59658,512.784742 664.668228,520.315556 663.092612,527 C666.739781,246.399865 511.184371,234.948521 511.184371,234.948521 L511,231.66263 Z" id="Combined-Shape" fill="url(#linearGradient-24)" opacity="0.8"></path>
            <path d="M489,433 C489,433 489.816816,493.456186 491.715945,512.927264 C493.026965,526.368674 496.202086,538.494222 502.877018,548.780531 C507.103132,555.293124 512.662272,560.784243 520.262105,566.310531 C532.764049,575.401434 541.039197,576.241651 548.96387,577.458969 C556.888543,578.676288 603,577.458969 603,577.458969 L489,433 Z" id="Path-5" fill="url(#linearGradient-25)" opacity="0.663129664" filter="url(#filter-26)"></path>
            <ellipse id="Oval-9" fill="#FFFFFF" opacity="0.8" filter="url(#filter-27)" cx="601.5" cy="283.5" rx="56.5" ry="47.5"></ellipse>
            <path d="M489,429 L490.822541,494.678851 C490.822541,494.678851 489.752789,551.825256 521.377525,566.271141 C553.002262,580.717027 565.162692,577.50683 565.162692,577.50683 L586,578 L586,570.372719 C586,570.372719 535.619553,571.378969 523.748657,557.035699 C511.877761,542.692429 499.317317,522.858437 499.317317,493.16871 L499.317317,429 L489,429 Z" id="Path-9" fill="url(#linearGradient-28)" opacity="0.6" filter="url(#filter-29)"></path>
            <g id="key">
                <use fill="url(#linearGradient-1)" fill-rule="evenodd" xlink:href="#path-30"></use>
                <rect stroke="#FFFFFF" stroke-width="8" x="25" y="507" width="384" height="69" rx="12"></rect>
                <rect stroke="url(#linearGradient-2)" stroke-width="6" x="24" y="506" width="386" height="71" rx="12"></rect>
                <rect stroke="#8A8A8A" stroke-width="2" x="22" y="504" width="390" height="75" rx="12"></rect>
                <rect stroke-opacity="0.6" stroke="#818181" stroke-width="1" x="20.5" y="502.5" width="393" height="78" rx="12"></rect>
            </g>
            <text id="space" font-family="ArialMT, Arial" font-size="34" font-weight="normal" letter-spacing="2.48038101" fill="#8A8A8A">
                <tspan x="165.435278" y="550">space</tspan>
            </text>
            <text id="jump" font-family="Roboto" font-size="40" font-weight="normal" letter-spacing="2.91809511" fill="#FFFFFF">
                <tspan x="156.111075" y="632">jump</tspan>
            </text>
            <text id="control-scheme" font-family="Roboto" font-size="40" font-weight="normal" letter-spacing="2.91809511" fill="#FFFFFF">
                <tspan x="211.335053" y="37">control scheme</tspan>
            </text>
            <text id="create-voxel" font-family="Roboto" font-size="40" font-weight="normal" letter-spacing="2.91809511" fill="#FFFFFF">
                <tspan x="461.284398" y="632">create voxel</tspan>
            </text>
            <text id="move" font-family="Roboto" font-size="40" font-weight="normal" letter-spacing="2.91809511" fill="#FFFFFF">
                <tspan x="152.429435" y="446">move</tspan>
            </text>
            <g id="Oval" opacity="0.574048913" style="mix-blend-mode: darken;" fill-opacity="1" fill="black">
                <use filter="url(#filter-32)" xlink:href="#path-31"></use>
            </g>
            <g id="key">
                <use fill="url(#linearGradient-1)" fill-rule="evenodd" xlink:href="#path-33"></use>
                <rect stroke="#FFFFFF" stroke-width="8" x="25" y="92" width="102" height="58" rx="12"></rect>
                <rect stroke="url(#linearGradient-2)" stroke-width="6" x="24" y="91" width="104" height="60" rx="12"></rect>
                <rect stroke="#8A8A8A" stroke-width="2" x="22" y="89" width="108" height="64" rx="12"></rect>
                <rect stroke-opacity="0.6" stroke="#818181" stroke-width="1" x="20.5" y="87.5" width="111" height="67" rx="12"></rect>
            </g>
            <g id="esc">
                <use fill="black" fill-opacity="1" filter="url(#filter-35)" xlink:href="#path-34"></use>
                <use fill="#6E6F71" fill-rule="evenodd" xlink:href="#path-34"></use>
            </g>
            <text id="reveal-mouse-pointer" font-family="Roboto" font-size="40" font-weight="normal" letter-spacing="2.91809511" fill="#FFFFFF">
                <tspan x="152.319049" y="132">reveal mouse pointer</tspan>
            </text>
        </g>
    </g>
</svg>