<svg xmlns="http://www.w3.org/2000/svg" width="240" height="240" viewBox="0 0 240 240">
  <g fill="none" fill-rule="evenodd">
    <path fill="#00AEEF" fill-rule="nonzero" d="M50.78,80.77 C51.0723599,85.9699482 53.7570793,90.7411414 58.05,93.69 L93.78,115.32 C98.3229149,117.746672 103.777085,117.746672 108.32,115.32 L143.97,93.69 C148.262921,90.7411414 150.94764,85.9699482 151.24,80.77 L151.24,36.87 C150.94764,31.6700518 148.262921,26.8988586 143.97,23.95 L108.27,2.32 C103.727085,-0.106671565 98.2729149,-0.106671565 93.73,2.32 L58.08,23.95 C53.7756942,26.8924477 51.0793146,31.6646703 50.78,36.87 L50.78,80.77 Z M50.78,28.36 L100.97,58.81 L50.78,28.36 Z M100.97,119.72 L100.97,58.82 L100.97,119.72 Z M151.16,28.37 L100.97,58.82 L151.16,28.37 Z"/>
    <path stroke="#231F20" stroke-linejoin="round" d="M149.126467,29.6037332 C147.88077,27.376488 146.128711,25.4328445 143.97,23.95 L108.27,2.32 C103.727085,-0.106671565 98.2729149,-0.106671565 93.73,2.32 L58.08,23.95 C55.9032435,25.438043 54.137712,27.3940487 52.8854699,29.6373771 L100.97,58.81 L52.8854699,29.6373771 C51.6615356,31.8299934 50.9279464,34.2970891 50.78,36.87 L50.78,80.77 C51.0723599,85.9699482 53.7570793,90.7411414 58.05,93.69 L93.78,115.32 C96.0272214,116.52039 98.4974211,117.126989 100.97,117.139796 L100.97,58.82 L100.97,117.139796 C103.495912,117.152881 106.024307,116.546282 108.32,115.32 L143.97,93.69 C148.262921,90.7411414 150.94764,85.9699482 151.24,80.77 L151.24,36.87 C151.094654,34.2848651 150.358027,31.8056989 149.126467,29.6037332 L100.97,58.82 L149.126467,29.6037332 Z"/>
    <path fill="#F7941D" fill-rule="nonzero" d="M100.88,172.14 C101.17236,177.339948 103.857079,182.111141 108.15,185.06 L143.78,206.68 C148.322915,209.106672 153.777085,209.106672 158.32,206.68 L193.97,185.05 C198.262921,182.101141 200.94764,177.329948 201.24,172.13 L201.24,128.23 C200.94764,123.030052 198.262921,118.258859 193.97,115.31 L158.32,93.68 C153.777085,91.2533284 148.322915,91.2533284 143.78,93.68 L108.13,115.31 C103.837079,118.258859 101.15236,123.030052 100.86,128.23 L100.88,172.14 Z M100.88,119.73 L151.07,150.18 L100.88,119.73 Z M151.07,211.09 L151.07,150.18 L151.07,211.09 Z M201.26,119.73 L151.07,150.18 L201.26,119.73 Z"/>
    <path stroke="#231F20" stroke-linejoin="round" d="M199.151734,121.009073 C197.904508,118.762864 196.143347,116.802898 193.97,115.31 L158.32,93.68 C153.777085,91.2533284 148.322915,91.2533284 143.78,93.68 L108.13,115.31 C105.962508,116.798876 104.204983,118.752308 102.958356,120.990927 L151.07,150.18 L102.958356,120.990927 C101.735922,123.186102 101.004748,125.655502 100.86,128.23 L100.88,172.14 C101.17236,177.339948 103.857079,182.111141 108.15,185.06 L143.78,206.68 C146.057516,207.896572 148.564064,208.503236 151.07,208.499991 L151.07,150.18 L151.07,208.499991 C153.562603,208.496763 156.054602,207.890099 158.32,206.68 L193.97,185.05 C198.262921,182.101141 200.94764,177.329948 201.24,172.13 L201.24,128.23 C201.095651,125.662593 200.368102,123.199706 199.151734,121.009073 L151.07,150.18 L199.151734,121.009073 Z"/>
    <path fill="#39B54A" fill-rule="nonzero" d="M0.63,172.14 C0.922359887,177.339948 3.60707927,182.111141 7.9,185.06 L43.55,206.69 C48.0929149,209.116672 53.5470851,209.116672 58.09,206.69 L93.78,185.05 C98.0729207,182.101141 100.75764,177.329948 101.05,172.13 L101.05,128.23 C100.754612,123.033639 98.0702349,118.266746 93.78,115.32 L58.13,93.69 C53.5870851,91.2633284 48.1329149,91.2633284 43.59,93.69 L7.94,115.32 C3.64707927,118.268859 0.962359887,123.040052 0.67,128.24 L0.63,172.14 Z M0.63,119.73 L50.78,150.18 L0.63,119.73 Z M50.78,211.09 L50.78,150.18 L50.78,211.09 Z M100.97,119.73 L50.78,150.18 L100.97,119.73 Z"/>
    <path stroke="#231F20" stroke-linejoin="round" d="M98.9325597,120.966104 C97.6870075,118.741977 95.9363422,116.801083 93.78,115.32 L58.13,93.69 C53.5870851,91.2633284 48.1329149,91.2633284 43.59,93.69 L7.94,115.32 C5.76589004,116.813422 4.00425513,118.774241 2.75695198,121.021439 L50.78,150.18 L2.75695198,121.021439 C1.5413744,123.21148 0.814296928,125.673517 0.67,128.24 L0.63,172.14 C0.922359887,177.339948 3.60707927,182.111141 7.9,185.06 L43.55,206.69 C45.8093395,207.896863 48.2940685,208.503513 50.78,208.509952 L50.78,150.18 L50.78,208.509952 C53.2925981,208.516459 55.8064246,207.909809 58.09,206.69 L93.78,185.05 C98.0729207,182.101141 100.75764,177.329948 101.05,172.13 L101.05,128.23 C100.903079,125.645415 100.165145,123.167076 98.9325597,120.966104 L50.78,150.18 L98.9325597,120.966104 Z"/>
    <path fill="#F7941D" fill-rule="nonzero" d="M50.69,202.59 C50.9823599,207.789948 53.6670793,212.561141 57.96,215.51 L93.61,237.14 C98.1529149,239.566672 103.607085,239.566672 108.15,237.14 L143.78,215.51 C148.072921,212.561141 150.75764,207.789948 151.05,202.59 L151.05,158.69 C150.75764,153.490052 148.072921,148.718859 143.78,145.77 L108.13,124.14 C103.587085,121.713328 98.1329149,121.713328 93.59,124.14 L50.69,150.19 L50.69,202.59 Z M50.69,150.18 L100.88,180.63 L50.69,150.18 Z M100.88,241.54 L100.88,180.64 L100.88,241.54 Z M151.07,150.19 L100.88,180.64 L151.07,150.19 Z"/>
    <path stroke="#231F20" stroke-linejoin="round" d="M100.88,238.960004 C98.3807287,238.960004 95.8814574,238.353336 93.61,237.14 L57.96,215.51 C53.6670793,212.561141 50.9823599,207.789948 50.69,202.59 L50.69,150.19 L50.6982378,150.184998 L100.88,180.63 L50.6982378,150.184998 L93.59,124.14 C98.1329149,121.713328 103.587085,121.713328 108.13,124.14 L151.07,150.19 L151.05,202.59 C150.75764,207.789948 148.072921,212.561141 143.78,215.51 L108.15,237.14 C105.878543,238.353336 103.379271,238.960004 100.88,238.960004 L100.88,180.64 L100.88,238.960004 Z M151.07,150.19 L100.88,180.64 L151.07,150.19 Z"/>
    <path fill="#39B54A" fill-rule="nonzero" d="M0.5,111.23 C0.79770792,116.428153 3.48597053,121.195388 7.78,124.14 L43.43,145.77 C47.9729149,148.196672 53.4270851,148.196672 57.97,145.77 L93.62,124.14 C97.9129207,121.191141 100.59764,116.419948 100.89,111.22 L100.460815,59.1004639 L57.97,32.77 C53.4270851,30.3433284 47.9729149,30.3433284 43.43,32.77 L7.78,54.41 C3.48707927,57.3588586 0.802359887,62.1300518 0.51,67.33 L0.5,111.23 Z M0.5,58.82 L50.69,89.27 L0.5,58.82 Z M50.69,150.18 L50.69,89.27 L50.69,150.18 Z M100.88,58.82 L50.69,89.27 L100.88,58.82 Z"/>
    <path stroke="#231F20" stroke-linejoin="round" d="M2.60494365,60.0970579 L50.69,89.27 L2.60494365,60.0970579 C3.85177511,57.8558747 5.61052924,55.9002354 7.78,54.41 L43.43,32.77 C47.9729149,30.3433284 53.4270851,30.3433284 57.97,32.77 L93.62,54.4 C94.1082956,54.7354161 96.5316289,56.2087494 100.89,58.82 L100.89,111.22 C100.59764,116.419948 97.9129207,121.191141 93.62,124.14 L50.69,150.18 L7.78,124.14 C3.48597053,121.195388 0.79770792,116.428153 0.5,111.23 L0.51,67.33 C0.654612871,64.757898 1.38456111,62.290699 2.60494365,60.0970579 Z M50.69,150.18 L50.69,89.27 L50.69,150.18 Z M100.88,58.82 L50.69,89.27 L100.88,58.82 Z"/>
    <path fill="#00AEEF" fill-rule="nonzero" d="M100.88,111.23 C101.17236,116.429948 103.857079,121.201141 108.15,124.15 L151.07,149.605225 L193.97,124.14 C198.262921,121.191141 200.94764,116.419948 201.24,111.22 L201.24,67.32 C200.94764,62.1200518 198.262921,57.3488586 193.97,54.4 L158.32,32.77 C153.777085,30.3433284 148.322915,30.3433284 143.78,32.77 L108.15,54.41 C103.857079,57.3588586 101.17236,62.1300518 100.88,67.33 L100.88,111.23 Z M100.88,58.82 L151.07,89.27 L100.88,58.82 Z M151.07,150.18 L151.07,89.27 L151.07,150.18 Z M201.26,58.82 L151.07,89.27 L201.26,58.82 Z"/>
    <path stroke="#231F20" stroke-linejoin="round" d="M199.151734,60.0990733 L151.07,89.27 L199.151734,60.0990733 C200.368102,62.2897065 201.095651,64.7525931 201.24,67.32 L201.24,111.22 C200.94764,116.419948 198.262921,121.191141 193.97,124.14 L151.07,150.18 L108.15,124.15 C103.857079,121.201141 101.17236,116.429948 100.88,111.23 L100.88,58.82 L143.78,32.77 C148.322915,30.3433284 153.777085,30.3433284 158.32,32.77 L193.97,54.4 C196.143347,55.892898 197.904508,57.8528643 199.151734,60.0990733 Z M100.88,58.82 L106.500965,62.2302092 L151.07,89.27 L100.88,58.82 Z M151.07,150.18 L151.07,89.27 L151.07,150.18 Z"/>
    <polygon fill="#00AA4F" fill-rule="nonzero" points="100.505 119.419 51.019 149.456 51.573 89.131 100.505 59.495"/>
    <polygon fill="#0097D3" fill-rule="nonzero" points="101.347 119.549 150.627 149.339 150.627 89.604 101.347 59.642"/>
    <path d="M108.15,176.23 C103.607085,178.656672 98.1529149,178.656672 93.61,176.23 L57.96,154.6 C53.96,152.17 53.96,148.18 57.96,145.71 L93.78,123.51 C98.2847602,121.044676 103.73524,121.044676 108.24,123.51 L143.89,145.64 C147.89,148.11 147.89,152.11 143.89,154.54 L108.15,176.23 Z"/>
    <path stroke="#000" stroke-linecap="square" d="M51.0976562,150.123779 L100.756348,119.775879"/>
    <path stroke="#000" stroke-linecap="square" d="M101.043457,150.266113 L151.177734,119.754883 L101.043457,150.266113 Z" transform="matrix(-1 0 0 1 252.221 0)"/>
    <path stroke="#000" stroke-linecap="square" d="M100.945618,58.8154297 L100.945618,119.227051"/>
    <polygon fill="#F9B65E" fill-rule="nonzero" points="100.979 180.13 51.669 150.209 100.979 120.236 150.155 150.106"/>
  </g>
</svg>
